name rise42.5664peak47.7979fall81.9185.mot
datacolumns 19
datarows 67
range 6.254978 6.364974
endheader
time	ground_force1_vx	ground_force1_vy	ground_force1_vz	ground_force1_px	ground_force1_py	ground_force1_pz	ground_force2_vx	ground_force2_vy	ground_force2_vz	ground_force2_px	ground_force2_py	ground_force2_pz	ground_torque1_x	ground_torque1_y	ground_torque1_z	ground_torque2_x	ground_torque2_y	ground_torque2_z	
6.254978	29.433559	711.342172	43.426791	0.224044	0.000000	0.082054	0.000000	0.000000	0.000000	0.000000	0.000000	0.000000	0.000000	14.400090	0.000000	0.000000	0.000000	0.000000	
6.256646	29.085133	709.525039	43.140757	0.223287	0.000000	0.082002	0.000000	0.000000	0.000000	0.000000	0.000000	0.000000	0.000000	14.281593	0.000000	0.000000	0.000000	0.000000	
6.258308	28.743418	707.781678	42.863189	0.222544	0.000000	0.081950	0.000000	0.000000	0.000000	0.000000	0.000000	0.000000	0.000000	14.166898	0.000000	0.000000	0.000000	0.000000	
6.259973	28.408142	706.114079	42.594388	0.221814	0.000000	0.081899	0.000000	0.000000	0.000000	0.000000	0.000000	0.000000	0.000000	14.056111	0.000000	0.000000	0.000000	0.000000	
6.261643	28.079010	704.524015	42.334619	0.221096	0.000000	0.081848	0.000000	0.000000	0.000000	0.000000	0.000000	0.000000	0.000000	13.949324	0.000000	0.000000	0.000000	0.000000	
6.263310	27.755708	703.013048	42.084117	0.220388	0.000000	0.081797	0.000000	0.000000	0.000000	0.000000	0.000000	0.000000	0.000000	13.846619	0.000000	0.000000	0.000000	0.000000	
6.264973	27.437901	701.582527	41.843078	0.219690	0.000000	0.081747	0.000000	0.000000	0.000000	0.000000	0.000000	0.000000	0.000000	13.748065	0.000000	0.000000	0.000000	0.000000	
6.266639	27.125239	700.233590	41.611669	0.219000	0.000000	0.081697	0.000000	0.000000	0.000000	0.000000	0.000000	0.000000	0.000000	13.653719	0.000000	0.000000	0.000000	0.000000	
6.268305	26.817352	698.967169	41.390022	0.218317	0.000000	0.081649	0.000000	0.000000	0.000000	0.000000	0.000000	0.000000	0.000000	13.563629	0.000000	0.000000	0.000000	0.000000	
6.269971	26.513859	697.783988	41.178236	0.217640	0.000000	0.081600	0.000000	0.000000	0.000000	0.000000	0.000000	0.000000	0.000000	13.477831	0.000000	0.000000	0.000000	0.000000	
6.271640	26.214365	696.684572	40.976379	0.216967	0.000000	0.081553	0.000000	0.000000	0.000000	0.000000	0.000000	0.000000	0.000000	13.396352	0.000000	0.000000	0.000000	0.000000	
6.273313	25.918461	695.669248	40.784487	0.216296	0.000000	0.081507	0.000000	0.000000	0.000000	0.000000	0.000000	0.000000	0.000000	13.319209	0.000000	0.000000	0.000000	0.000000	
6.274973	25.625730	694.738149	40.602567	0.215628	0.000000	0.081462	0.000000	0.000000	0.000000	0.000000	0.000000	0.000000	0.000000	13.246411	0.000000	0.000000	0.000000	0.000000	
6.276643	25.335747	693.891221	40.430594	0.214959	0.000000	0.081418	0.000000	0.000000	0.000000	0.000000	0.000000	0.000000	0.000000	13.177957	0.000000	0.000000	0.000000	0.000000	
6.278305	25.048081	693.128228	40.268518	0.214290	0.000000	0.081375	0.000000	0.000000	0.000000	0.000000	0.000000	0.000000	0.000000	13.113837	0.000000	0.000000	0.000000	0.000000	
6.279972	24.762295	692.448759	40.116261	0.213617	0.000000	0.081333	0.000000	0.000000	0.000000	0.000000	0.000000	0.000000	0.000000	13.054036	0.000000	0.000000	0.000000	0.000000	
6.281641	24.477950	691.852234	39.973716	0.212942	0.000000	0.081293	0.000000	0.000000	0.000000	0.000000	0.000000	0.000000	0.000000	12.998530	0.000000	0.000000	0.000000	0.000000	
6.283307	24.194605	691.337910	39.840756	0.212261	0.000000	0.081254	0.000000	0.000000	0.000000	0.000000	0.000000	0.000000	0.000000	12.947288	0.000000	0.000000	0.000000	0.000000	
6.284977	23.911822	690.904889	39.717227	0.211574	0.000000	0.081216	0.000000	0.000000	0.000000	0.000000	0.000000	0.000000	0.000000	12.900274	0.000000	0.000000	0.000000	0.000000	
6.286639	23.629162	690.552129	39.602955	0.210880	0.000000	0.081180	0.000000	0.000000	0.000000	0.000000	0.000000	0.000000	0.000000	12.857444	0.000000	0.000000	0.000000	0.000000	
6.288311	23.346194	690.278448	39.497746	0.210177	0.000000	0.081145	0.000000	0.000000	0.000000	0.000000	0.000000	0.000000	0.000000	12.818750	0.000000	0.000000	0.000000	0.000000	
6.289975	23.062491	690.082533	39.401384	0.209466	0.000000	0.081112	0.000000	0.000000	0.000000	0.000000	0.000000	0.000000	0.000000	12.784140	0.000000	0.000000	0.000000	0.000000	
6.291642	22.777632	689.962951	39.313637	0.208744	0.000000	0.081080	0.000000	0.000000	0.000000	0.000000	0.000000	0.000000	0.000000	12.753556	0.000000	0.000000	0.000000	0.000000	
6.293305	22.491209	689.918158	39.234259	0.208011	0.000000	0.081049	0.000000	0.000000	0.000000	0.000000	0.000000	0.000000	0.000000	12.726935	0.000000	0.000000	0.000000	0.000000	
6.294978	22.202820	689.946505	39.162986	0.207267	0.000000	0.081020	0.000000	0.000000	0.000000	0.000000	0.000000	0.000000	0.000000	12.704212	0.000000	0.000000	0.000000	0.000000	
6.296645	21.912079	690.046249	39.099543	0.206511	0.000000	0.080992	0.000000	0.000000	0.000000	0.000000	0.000000	0.000000	0.000000	12.685317	0.000000	0.000000	0.000000	0.000000	
6.298311	21.618611	690.215565	39.043641	0.205742	0.000000	0.080966	0.000000	0.000000	0.000000	0.000000	0.000000	0.000000	0.000000	12.670178	0.000000	0.000000	0.000000	0.000000	
6.299978	21.322057	690.452550	38.994984	0.204960	0.000000	0.080940	0.000000	0.000000	0.000000	0.000000	0.000000	0.000000	0.000000	12.658722	0.000000	0.000000	0.000000	0.000000	
6.301646	21.022073	690.755239	38.953266	0.204165	0.000000	0.080916	0.000000	0.000000	0.000000	0.000000	0.000000	0.000000	0.000000	12.650869	0.000000	0.000000	0.000000	0.000000	
6.303313	20.718332	691.121608	38.918171	0.203357	0.000000	0.080893	0.000000	0.000000	0.000000	0.000000	0.000000	0.000000	0.000000	12.646542	0.000000	0.000000	0.000000	0.000000	
6.304978	20.410526	691.549587	38.889382	0.202534	0.000000	0.080872	0.000000	0.000000	0.000000	0.000000	0.000000	0.000000	0.000000	12.645660	0.000000	0.000000	0.000000	0.000000	
6.306637	20.098365	692.037071	38.866574	0.201699	0.000000	0.080851	0.000000	0.000000	0.000000	0.000000	0.000000	0.000000	0.000000	12.648139	0.000000	0.000000	0.000000	0.000000	
6.308311	19.781579	692.581925	38.849420	0.200850	0.000000	0.080831	0.000000	0.000000	0.000000	0.000000	0.000000	0.000000	0.000000	12.653897	0.000000	0.000000	0.000000	0.000000	
6.309973	19.459920	693.181995	38.837591	0.199987	0.000000	0.080812	0.000000	0.000000	0.000000	0.000000	0.000000	0.000000	0.000000	12.662849	0.000000	0.000000	0.000000	0.000000	
6.311641	19.133159	693.835118	38.830757	0.199112	0.000000	0.080793	0.000000	0.000000	0.000000	0.000000	0.000000	0.000000	0.000000	12.674911	0.000000	0.000000	0.000000	0.000000	
6.313307	18.801090	694.539127	38.828592	0.198224	0.000000	0.080775	0.000000	0.000000	0.000000	0.000000	0.000000	0.000000	0.000000	12.689995	0.000000	0.000000	0.000000	0.000000	
6.314980	18.463528	695.291865	38.830767	0.197323	0.000000	0.080758	0.000000	0.000000	0.000000	0.000000	0.000000	0.000000	0.000000	12.708015	0.000000	0.000000	0.000000	0.000000	
6.316640	18.120312	696.091186	38.836960	0.196411	0.000000	0.080741	0.000000	0.000000	0.000000	0.000000	0.000000	0.000000	0.000000	12.728885	0.000000	0.000000	0.000000	0.000000	
6.318312	17.771303	696.934970	38.846851	0.195488	0.000000	0.080725	0.000000	0.000000	0.000000	0.000000	0.000000	0.000000	0.000000	12.752518	0.000000	0.000000	0.000000	0.000000	
6.319977	17.416384	697.821123	38.860128	0.194554	0.000000	0.080709	0.000000	0.000000	0.000000	0.000000	0.000000	0.000000	0.000000	12.778826	0.000000	0.000000	0.000000	0.000000	
6.321642	17.055464	698.747589	38.876484	0.193610	0.000000	0.080693	0.000000	0.000000	0.000000	0.000000	0.000000	0.000000	0.000000	12.807721	0.000000	0.000000	0.000000	0.000000	
6.323310	16.688471	699.712355	38.895619	0.192656	0.000000	0.080677	0.000000	0.000000	0.000000	0.000000	0.000000	0.000000	0.000000	12.839115	0.000000	0.000000	0.000000	0.000000	
6.324978	16.315358	700.713456	38.917242	0.191694	0.000000	0.080660	0.000000	0.000000	0.000000	0.000000	0.000000	0.000000	0.000000	12.872921	0.000000	0.000000	0.000000	0.000000	
6.326646	15.936100	701.748981	38.941074	0.190725	0.000000	0.080644	0.000000	0.000000	0.000000	0.000000	0.000000	0.000000	0.000000	12.909051	0.000000	0.000000	0.000000	0.000000	
6.328304	15.550694	702.817078	38.966842	0.189748	0.000000	0.080628	0.000000	0.000000	0.000000	0.000000	0.000000	0.000000	0.000000	12.947414	0.000000	0.000000	0.000000	0.000000	
6.329974	15.159160	703.915961	38.994288	0.188765	0.000000	0.080611	0.000000	0.000000	0.000000	0.000000	0.000000	0.000000	0.000000	12.987923	0.000000	0.000000	0.000000	0.000000	
6.331642	14.761538	705.043909	39.023165	0.187776	0.000000	0.080593	0.000000	0.000000	0.000000	0.000000	0.000000	0.000000	0.000000	13.030489	0.000000	0.000000	0.000000	0.000000	
6.333310	14.357889	706.199272	39.053238	0.186783	0.000000	0.080576	0.000000	0.000000	0.000000	0.000000	0.000000	0.000000	0.000000	13.075021	0.000000	0.000000	0.000000	0.000000	
6.334975	13.948295	707.380477	39.084285	0.185785	0.000000	0.080557	0.000000	0.000000	0.000000	0.000000	0.000000	0.000000	0.000000	13.121429	0.000000	0.000000	0.000000	0.000000	
6.336643	13.532858	708.586026	39.116102	0.184784	0.000000	0.080538	0.000000	0.000000	0.000000	0.000000	0.000000	0.000000	0.000000	13.169622	0.000000	0.000000	0.000000	0.000000	
6.338305	13.111696	709.814497	39.148495	0.183781	0.000000	0.080518	0.000000	0.000000	0.000000	0.000000	0.000000	0.000000	0.000000	13.219508	0.000000	0.000000	0.000000	0.000000	
6.339978	12.684948	711.064552	39.181287	0.182776	0.000000	0.080498	0.000000	0.000000	0.000000	0.000000	0.000000	0.000000	0.000000	13.270996	0.000000	0.000000	0.000000	0.000000	
6.341645	12.252770	712.334930	39.214317	0.181770	0.000000	0.080476	0.000000	0.000000	0.000000	0.000000	0.000000	0.000000	0.000000	13.323991	0.000000	0.000000	0.000000	0.000000	
6.343308	11.815334	713.624452	39.247441	0.180763	0.000000	0.080454	0.000000	0.000000	0.000000	0.000000	0.000000	0.000000	0.000000	13.378401	0.000000	0.000000	0.000000	0.000000	
6.344977	11.372826	714.932019	39.280528	0.179756	0.000000	0.080430	0.000000	0.000000	0.000000	0.000000	0.000000	0.000000	0.000000	13.434130	0.000000	0.000000	0.000000	0.000000	
6.346638	10.925449	716.256614	39.313465	0.178750	0.000000	0.080406	0.000000	0.000000	0.000000	0.000000	0.000000	0.000000	0.000000	13.491081	0.000000	0.000000	0.000000	0.000000	
6.348313	10.473419	717.597293	39.346158	0.177745	0.000000	0.080381	0.000000	0.000000	0.000000	0.000000	0.000000	0.000000	0.000000	13.549158	0.000000	0.000000	0.000000	0.000000	
6.349973	10.016964	718.953195	39.378526	0.176742	0.000000	0.080355	0.000000	0.000000	0.000000	0.000000	0.000000	0.000000	0.000000	13.608263	0.000000	0.000000	0.000000	0.000000	
6.351639	9.556326	720.323527	39.410507	0.175741	0.000000	0.080327	0.000000	0.000000	0.000000	0.000000	0.000000	0.000000	0.000000	13.668297	0.000000	0.000000	0.000000	0.000000	
6.353313	9.091755	721.707573	39.442054	0.174742	0.000000	0.080299	0.000000	0.000000	0.000000	0.000000	0.000000	0.000000	0.000000	13.729158	0.000000	0.000000	0.000000	0.000000	
6.354979	8.623514	723.104680	39.473137	0.173746	0.000000	0.080270	0.000000	0.000000	0.000000	0.000000	0.000000	0.000000	0.000000	13.790746	0.000000	0.000000	0.000000	0.000000	
6.356640	8.151873	724.514264	39.503742	0.172753	0.000000	0.080239	0.000000	0.000000	0.000000	0.000000	0.000000	0.000000	0.000000	13.852958	0.000000	0.000000	0.000000	0.000000	
6.358309	7.677110	725.935800	39.533872	0.171763	0.000000	0.080208	0.000000	0.000000	0.000000	0.000000	0.000000	0.000000	0.000000	13.915691	0.000000	0.000000	0.000000	0.000000	
6.359975	7.199511	727.368819	39.563545	0.170776	0.000000	0.080176	0.000000	0.000000	0.000000	0.000000	0.000000	0.000000	0.000000	13.978839	0.000000	0.000000	0.000000	0.000000	
6.361645	6.719368	728.812904	39.592794	0.169794	0.000000	0.080142	0.000000	0.000000	0.000000	0.000000	0.000000	0.000000	0.000000	14.042297	0.000000	0.000000	0.000000	0.000000	
6.363308	6.236978	730.267685	39.621666	0.168814	0.000000	0.080108	0.000000	0.000000	0.000000	0.000000	0.000000	0.000000	0.000000	14.105958	0.000000	0.000000	0.000000	0.000000	
6.364974	5.752640	731.732834	39.650225	0.167838	0.000000	0.080073	0.000000	0.000000	0.000000	0.000000	0.000000	0.000000	0.000000	14.169716	0.000000	0.000000	0.000000	0.000000	
